<?xml version="1.0" encoding="utf-8"?>
<!-- Generator: Adobe Illustrator 21.0.2, SVG Export Plug-In . SVG Version: 6.00 Build 0)  -->
<svg version="1.1" id="Layer_1" xmlns="http://www.w3.org/2000/svg" xmlns:xlink="http://www.w3.org/1999/xlink" x="0px" y="0px"
	 viewBox="0 0 910 258" style="enable-background:new 0 0 910 258;" xml:space="preserve">
<style type="text/css">
	.st0{fill:#2E3192;}
	.st1{fill:#FAB716;}
	.st2{fill:#54B448;}
</style>
<path class="st0" d="M66.2,147.1"/>
<g>
	<path class="st1" d="M201.7,72.9l27.6,0c7.7,0,13.5,6,13.9,14.7l3.4,65.6l29.8-66.8c3.6-8.1,11-13.5,18.4-13.5l13.6,0
		c7.3,0,12.9,5.4,13.9,13.3l8.7,67.2l25-65.8c3.3-8.6,11-14.7,18.7-14.7l27.4,0L341.4,201h-13.4c-14.7,0-26.1-11-28.2-27.2
		l-6.4-50.4l-22.3,50c-7.3,16.4-22.3,27.5-37.2,27.5l-13.3,0L201.7,72.9z"/>
	<path class="st1" d="M437,113.1l-32.4-4c2.8-8.2,5.9-14.6,9.5-19.2c3.6-4.7,8.3-8.7,14.2-12.1c4.2-2.5,9.8-4.4,16.8-5.7
		c7-1.3,14.4-2,22.3-2c12.6,0,22.7,0.8,30.1,2.4c7.4,1.6,13.3,5,17.7,10.2c3.1,3.6,5.2,8.7,6.4,15.2c1.2,6.6,1.3,12.9,0.5,18.9
		l-7.9,56.7c-0.8,6.1-1.2,10.9-1,14.3c0.2,3.5,1,7.9,2.5,13.3h-40.1c-1.1-3.3-1.8-5.9-2.1-7.6c-0.2-1.7-0.3-4.5-0.3-8.2
		c-6.5,6.3-12.7,10.7-18.6,13.4c-8.1,3.6-17.1,5.4-27.2,5.4c-13.3,0-22.9-3.6-28.7-10.8c-5.8-7.2-7.9-16-6.3-26.4
		c1.5-9.8,5.2-17.8,11.1-24.1c5.9-6.3,15.7-10.9,29.4-14c16.5-3.7,27.1-6.3,32.1-7.8c4.9-1.5,10.2-3.4,15.8-5.8
		c0.9-6,0.4-10.2-1.4-12.6c-1.8-2.4-5.4-3.6-10.8-3.6c-6.9,0-12.3,1.3-16.1,3.8c-1.7,1.1-3.3,2.8-4.8,5
		C445.2,111.4,441.2,113.6,437,113.1z M477.3,139.7c-6.2,2.4-12.6,4.5-19.2,6.4c-9,2.7-14.9,5.3-17.6,7.9c-2.8,2.7-4.4,5.7-4.9,9.1
		c-0.6,3.9,0.1,7.1,2.1,9.5c2,2.5,5.2,3.7,9.8,3.7c4.7,0,9.4-1.3,13.8-4c4.5-2.7,7.8-5.9,10.1-9.8c2.3-3.8,3.8-8.8,4.7-15
		L477.3,139.7z"/>
	<path class="st1" d="M579.2,113.1l-32.5-4c2.6-8.2,5.7-14.6,9.2-19.2c3.5-4.7,8.2-8.7,14-12.1c4.2-2.5,9.8-4.4,16.7-5.7
		c6.9-1.3,14.4-2,22.2-2c12.6,0,22.7,0.8,30.1,2.4c7.5,1.6,13.4,5,17.9,10.2c3.1,3.6,5.3,8.7,6.6,15.2c1.3,6.6,1.5,12.9,0.8,18.9
		l-7.1,56.7c-0.8,6.1-1,10.9-0.8,14.3c0.2,3.5,1.1,7.9,2.7,13.3l-40.1,0c-1.2-3.3-1.9-5.9-2.2-7.6c-0.3-1.7-0.4-4.5-0.4-8.2
		c-6.4,6.3-12.5,10.7-18.4,13.4c-8,3.6-17.1,5.4-27.1,5.4c-13.3,0-22.9-3.6-28.8-10.8c-5.9-7.2-8.1-16-6.7-26.4
		c1.3-9.8,4.9-17.8,10.7-24.1c5.8-6.3,15.5-10.9,29.2-14c16.4-3.7,27.1-6.3,32-7.8c4.9-1.5,10.2-3.4,15.7-5.8
		c0.8-6,0.2-10.2-1.6-12.6c-1.8-2.4-5.5-3.6-10.9-3.6c-6.9,0-12.3,1.3-16.1,3.8c-1.6,1.1-3.2,2.8-4.7,5
		C587.3,111.4,583.3,113.6,579.2,113.1z M619.9,139.7c-6.2,2.4-12.5,4.5-19.1,6.4c-9,2.7-14.8,5.3-17.4,7.9
		c-2.7,2.7-4.3,5.7-4.8,9.1c-0.5,3.9,0.2,7.1,2.2,9.5c2,2.5,5.3,3.7,9.8,3.7c4.7,0,9.3-1.3,13.8-4c4.4-2.7,7.7-5.9,10-9.8
		c2.2-3.8,3.7-8.8,4.5-15L619.9,139.7z"/>
	<path class="st1" d="M702.3,25l25.2,0c9.3,0,15.8,8.6,14.6,19.3L723.7,201h-42.8L702.3,25z"/>
	<path class="st1" d="M757.2,72.9l32,0c7.4,0,13.4,5.6,14.7,13.7l11.3,71.2L840.4,87c3-8.4,10.2-14.1,17.8-14.1H887l-58.2,137
		c-6.7,15.9-13.1,26.6-18.9,32.2c-8.3,7.9-20.1,11.9-35.4,11.9c-4.3,0-10.1-0.5-17.5-1.4c-6.2-0.8-10.8-6.8-10.7-13.9l0.4-22.6
		c5.9,2.3,12.6,3.4,20.2,3.4c5,0,9.3-1.4,12.7-4.1c3.4-2.7,6.6-7.5,9.5-14.5L757.2,72.9z"/>
	<path class="st2" d="M107.1,97l12.1-27l2.5,29.4c1.4,16.5,12.6,27.7,27.5,27.7h19.4l-11.4-77.1C155,35,144.2,25,130.1,25l-27.6,0
		l-51.4,99.8h18.2C84.4,124.8,99.7,113.5,107.1,97z"/>
	<path class="st1" d="M158.2,136.5l-101.2,0c-7.1,0-14.4,5.1-18.4,12.8L12,201l22.9,0c15.2,0,30.8-11.7,38.3-28.6l0.4-0.9l53.8,0
		l1.2,15.3c0.7,8.4,6.3,14.2,13.9,14.2h37.1l-7.7-51.7C170.8,141.6,165.3,136.5,158.2,136.5z"/>
</g>
</svg>
